<svg width="90" height="90" viewBox="0 0 90 90" fill="none" xmlns="http://www.w3.org/2000/svg">
<path d="M48.4501 12.3248C48.155 13.4822 47.8599 14.6396 47.5876 15.8197C46.952 18.6337 42.5032 17.4536 43.2296 14.6396C43.5019 13.4595 43.797 12.3021 44.0921 11.1448L44.0924 11.1437C44.3873 9.98669 44.6823 8.82967 44.9546 7.64997C45.6809 4.74518 50.0389 6.01603 49.3126 8.83004C49.0402 10.0101 48.7451 11.1674 48.4501 12.3248Z" fill="#F2C94C"/>
<path fill-rule="evenodd" clip-rule="evenodd" d="M26.978 48.5893C24.345 45.2306 23.3463 40.5103 23.8911 36.2439C25.6161 23.2632 41.4137 17.2721 52.3995 21.72C60.2075 24.8971 66.6537 34.61 64.1115 43.1428C63.0127 46.8864 60.3267 49.5355 57.6808 52.145C54.4243 55.3568 51.2286 58.5086 51.1284 63.5671C53.1258 63.7486 54.3061 66.6534 52.1271 67.7427C46.7458 70.561 40.6413 69.0405 35.0232 67.6412C34.6697 67.5531 34.3182 67.4656 33.9689 67.3796C31.2451 66.7442 32.2438 62.7501 34.786 62.9316C34.786 58.1595 31.5221 54.1705 28.5368 50.522C28.0016 49.8679 27.4748 49.2241 26.978 48.5893ZM52.3995 26.7126C49.4942 25.0787 46.0441 24.534 42.6848 24.8064C35.6939 25.2602 28.1582 31.0698 28.1582 38.5133C28.2013 43.202 30.9354 46.7899 33.6846 50.3976C36.737 54.4032 39.808 58.4331 39.2348 64.0209C41.6861 64.5656 44.3191 65.0195 46.6796 64.7471C46.4073 61.2069 47.5876 56.6682 49.7665 53.7634C50.9198 52.191 52.4364 50.8204 53.9588 49.4444C56.3914 47.2458 58.8392 45.0335 59.8444 41.9627C61.6602 36.3347 57.3022 29.4359 52.3995 26.7126Z" fill="#F2C94C"/>
<path d="M74.2337 44.822C73.0765 44.6859 71.9192 44.5498 70.7393 44.4137C69.559 44.2321 68.4695 43.5059 68.4695 42.1443C68.4695 41.055 69.559 39.7841 70.7393 39.8749C71.9192 40.011 73.0765 40.1472 74.2337 40.2833L74.2358 40.2835C75.3931 40.4197 76.5503 40.5558 77.7302 40.6919C78.9105 40.7827 80 41.5996 80 42.9613C80 44.0506 78.9105 45.3214 77.7302 45.2306C76.5503 45.0945 75.3931 44.9584 74.2358 44.8223L74.2337 44.822Z" fill="#F2C94C"/>
<path d="M17.9896 37.9687L12.2698 37.424C11.0895 37.3332 10 38.5133 10 39.6934C10 41.055 11.0895 41.872 12.2698 41.9627L17.9896 42.5074C19.1699 42.5982 20.2594 41.4181 20.2594 40.238C20.2594 38.8764 19.1699 38.0594 17.9896 37.9687Z" fill="#F2C94C"/>
<path d="M64.8379 17.7259C63.8392 18.8152 62.9313 19.9045 62.1141 21.0846C61.3878 22.0831 61.9326 23.6263 62.9313 24.1709C64.1115 24.8064 65.2918 24.3525 66.0182 23.354C66.109 23.2632 66.177 23.1497 66.2451 23.0363C66.3132 22.9228 66.3813 22.8093 66.4721 22.7185L66.5629 22.6278C66.5904 22.6003 66.6179 22.5645 66.6479 22.5254C66.717 22.4354 66.7995 22.3279 66.9261 22.2647C67.1077 22.0377 67.3119 21.8108 67.5162 21.5839C67.7205 21.357 67.9248 21.13 68.1064 20.903C68.9235 19.9953 69.0143 18.5429 68.1064 17.7259C67.1077 16.909 65.655 16.8182 64.8379 17.7259Z" fill="#F2C94C"/>
<path d="M20.1686 15.7289C20.8042 14.6396 22.166 14.2765 23.2555 14.9119C24.799 15.8197 26.2516 16.9997 27.4319 18.3614C28.249 19.2691 28.3398 20.6307 27.4319 21.5385C26.6148 22.3554 25.0713 22.4462 24.2542 21.5385C23.1647 20.3584 22.3476 19.6322 20.9857 18.8152C19.8962 18.1798 19.5331 16.8182 20.1686 15.7289Z" fill="#F2C94C"/>
<path d="M45.2109 78.5859C41.6822 78.8824 38.157 79.1787 34.786 77.8187C32.0623 76.7294 30.882 81.0866 33.6057 82.1758C37.2485 83.6444 40.9673 83.3643 44.713 83.0822C46.7553 82.9284 48.8057 82.7739 50.856 82.902C53.7614 83.0836 53.7614 78.5449 50.856 78.3633C48.9887 78.2684 47.0992 78.4272 45.2109 78.5859Z" fill="#F2C94C"/>
<path d="M45.6648 71.4147C47.5532 71.256 49.4426 71.0972 51.31 71.1921C54.2153 71.2829 54.2153 75.8216 51.31 75.7309C49.2596 75.6027 47.2093 75.7572 45.1669 75.911C41.4213 76.1931 37.7024 76.4733 34.0597 75.0047C31.3359 73.9154 32.5162 69.5582 35.24 70.6475C38.611 72.0075 42.1362 71.7112 45.6648 71.4147Z" fill="#F2C94C"/>
</svg>
