<svg width="90" height="40" viewBox="0 0 90 40" fill="none" xmlns="http://www.w3.org/2000/svg">
<path d="M47.4858 7.40031C47.3739 7.83955 47.2619 8.27878 47.1585 8.72663C46.9173 9.79457 45.229 9.34673 45.5046 8.27879C45.608 7.83094 45.72 7.39171 45.832 6.95247L45.8321 6.95207C45.944 6.51298 46.0559 6.07388 46.1593 5.62617C46.4349 4.52379 48.0888 5.00608 47.8132 6.07402C47.7098 6.52186 47.5978 6.96108 47.4858 7.40031Z" fill="#F2C94C"/>
<path fill-rule="evenodd" clip-rule="evenodd" d="M39.337 21.1629C38.3378 19.8883 37.9588 18.0969 38.1655 16.4778C38.8202 11.5515 44.8155 9.27783 48.9847 10.9659C51.9479 12.1716 54.3942 15.8577 53.4295 19.096C53.0125 20.5167 51.9931 21.522 50.989 22.5123C49.7531 23.7313 48.5403 24.9274 48.5023 26.8471C49.2603 26.916 49.7082 28.0184 48.8813 28.4318C46.8391 29.5013 44.5223 28.9243 42.3902 28.3932C42.2561 28.3598 42.1227 28.3266 41.9901 28.294C40.9564 28.0528 41.3355 26.5371 42.3002 26.606C42.3002 24.7949 41.0616 23.281 39.9286 21.8964C39.7255 21.6482 39.5256 21.4038 39.337 21.1629ZM48.9847 12.8606C47.8821 12.2405 46.5728 12.0338 45.2979 12.1371C42.6448 12.3094 39.7849 14.5142 39.7849 17.339C39.8013 19.1184 40.8389 20.4801 41.8822 21.8492C43.0407 23.3694 44.2061 24.8987 43.9886 27.0194C44.9189 27.226 45.9181 27.3983 46.8139 27.2949C46.7106 25.9514 47.1585 24.2289 47.9854 23.1266C48.4231 22.5298 48.9987 22.0097 49.5764 21.4875C50.4996 20.6531 51.4286 19.8135 51.81 18.6481C52.4992 16.5122 50.8453 13.8941 48.9847 12.8606Z" fill="#F2C94C"/>
<path d="M57.2709 19.7332C56.8317 19.6816 56.3925 19.6299 55.9448 19.5782C55.4968 19.5093 55.0834 19.2338 55.0834 18.717C55.0834 18.3036 55.4968 17.8213 55.9448 17.8558C56.3925 17.9074 56.8317 17.9591 57.2709 18.0107L57.2717 18.0108C57.7109 18.0625 58.1501 18.1142 58.5979 18.1658C59.0458 18.2003 59.4593 18.5103 59.4593 19.0271C59.4593 19.4404 59.0458 19.9227 58.5979 19.8883C58.1501 19.8366 57.7109 19.785 57.2717 19.7333L57.2709 19.7332Z" fill="#F2C94C"/>
<path d="M35.9259 17.1323L33.7552 16.9256C33.3072 16.8912 32.8938 17.339 32.8938 17.7869C32.8938 18.3036 33.3072 18.6137 33.7552 18.6481L35.9259 18.8548C36.3738 18.8893 36.7873 18.4414 36.7873 17.9936C36.7873 17.4768 36.3738 17.1668 35.9259 17.1323Z" fill="#F2C94C"/>
<path d="M53.7051 9.45008C53.3261 9.86347 52.9815 10.2769 52.6714 10.7247C52.3958 11.1037 52.6025 11.6893 52.9815 11.896C53.4295 12.1371 53.8774 11.9649 54.153 11.5859C54.1875 11.5515 54.2133 11.5084 54.2392 11.4654C54.265 11.4223 54.2909 11.3792 54.3253 11.3448L54.3598 11.3104C54.3702 11.2999 54.3806 11.2863 54.392 11.2715C54.4183 11.2373 54.4496 11.1966 54.4976 11.1726C54.5665 11.0864 54.644 11.0003 54.7216 10.9142C54.7991 10.8281 54.8766 10.7419 54.9455 10.6558C55.2556 10.3113 55.2901 9.76012 54.9455 9.45008C54.5665 9.14003 54.0152 9.10558 53.7051 9.45008Z" fill="#F2C94C"/>
<path d="M36.7528 8.69219C36.994 8.27879 37.5109 8.14099 37.9243 8.38214C38.5101 8.72663 39.0614 9.17448 39.5093 9.69122C39.8194 10.0357 39.8539 10.5525 39.5093 10.897C39.1992 11.207 38.6134 11.2415 38.3033 10.897C37.8899 10.4491 37.5798 10.1735 37.0629 9.86347C36.6495 9.62232 36.5116 9.10558 36.7528 8.69219Z" fill="#F2C94C"/>
<path d="M46.2565 32.5468C44.9174 32.6594 43.5796 32.7718 42.3002 32.2557C41.2665 31.8423 40.8186 33.4959 41.8523 33.9093C43.2348 34.4666 44.6461 34.3603 46.0676 34.2532C46.8427 34.1948 47.6208 34.1362 48.3989 34.1849C49.5015 34.2538 49.5015 32.5313 48.3989 32.4624C47.6903 32.4264 46.9732 32.4866 46.2565 32.5468Z" fill="#F2C94C"/>
<path d="M46.4288 29.8253C47.1455 29.7651 47.8625 29.7048 48.5712 29.7409C49.6738 29.7753 49.6738 31.4978 48.5712 31.4633C47.7931 31.4147 47.0149 31.4733 46.2399 31.5317C44.8184 31.6388 43.407 31.7451 42.0246 31.1877C40.9909 30.7744 41.4388 29.1208 42.4725 29.5342C43.7518 30.0503 45.0897 29.9379 46.4288 29.8253Z" fill="#F2C94C"/>
<path d="M5 24.9775C5 24.8841 5.02335 24.7985 5.07005 24.7207C5.11674 24.6377 5.1816 24.5677 5.26462 24.5106C5.34763 24.4484 5.44362 24.3991 5.55258 24.3628C5.66673 24.3265 5.78607 24.3083 5.91059 24.3083C6.15446 24.3083 6.33346 24.3472 6.44761 24.425C6.56176 24.5029 6.63181 24.6248 6.65775 24.7908C6.74595 25.4807 6.81859 26.1344 6.87567 26.7517C6.93793 27.3638 6.98722 27.95 7.02354 28.5103C7.05986 29.0654 7.08581 29.5997 7.10137 30.1133C7.11694 30.6217 7.12472 31.1145 7.12472 31.5917C7.12472 31.8511 7.03133 32.0457 6.84454 32.1753C6.66294 32.305 6.39573 32.3699 6.0429 32.3699C5.88206 32.3699 5.75494 32.331 5.66154 32.2532C5.57334 32.1805 5.52923 32.0716 5.52923 31.9263C5.52923 31.0341 5.5007 30.1989 5.44362 29.4207C5.39174 28.6374 5.33207 27.9422 5.26462 27.3353C5.19717 26.7283 5.1349 26.2225 5.07783 25.8179C5.02594 25.4081 5 25.128 5 24.9775Z" fill="#4F4F4F"/>
<path d="M7.92635 26.3004C7.8589 26.3107 7.80183 26.3185 7.75513 26.3237C7.70843 26.3289 7.66952 26.3315 7.63839 26.3315C7.46198 26.3211 7.33745 26.2718 7.26481 26.1836C7.19217 26.0903 7.15585 25.9372 7.15585 25.7245C7.15585 25.3043 7.35821 25.0398 7.76291 24.9308C8.12093 24.8478 8.50488 24.7882 8.91478 24.7519C9.32468 24.7104 9.78127 24.6896 10.2846 24.6896C10.9591 24.6896 11.6284 24.7545 12.2925 24.8841C12.9619 25.0138 13.5975 25.1928 14.1993 25.4211C14.8064 25.6441 15.3694 25.9113 15.8882 26.2225C16.4071 26.5286 16.8559 26.8632 17.2347 27.2264C17.6186 27.5843 17.917 27.963 18.1297 28.3624C18.3476 28.7567 18.4566 29.1536 18.4566 29.553C18.4566 29.9576 18.3191 30.3441 18.0441 30.7124C17.7743 31.0756 17.4085 31.3972 16.9467 31.6773C16.4849 31.9575 15.9505 32.1805 15.3434 32.3465C14.7364 32.5125 14.1008 32.5955 13.4366 32.5955C12.9074 32.5955 12.3548 32.5463 11.7789 32.4477C11.2029 32.3491 10.5673 32.1909 9.87207 31.973C9.55038 31.8848 9.38953 31.6877 9.38953 31.3816C9.38953 31.3142 9.4051 31.2519 9.43623 31.1949C9.46736 31.1378 9.49849 31.0833 9.52962 31.0315C9.56594 30.9796 9.59967 30.9303 9.6308 30.8836C9.66193 30.8317 9.6775 30.7799 9.6775 30.728C9.6775 30.4323 9.66193 30.1159 9.6308 29.7787C9.60486 29.4415 9.56594 29.1043 9.51406 28.7671C9.46736 28.4299 9.41029 28.1082 9.34283 27.8022C9.28057 27.4909 9.21571 27.216 9.14826 26.9773C9.08081 26.7387 9.01077 26.5494 8.93813 26.4093C8.87067 26.2641 8.80841 26.1914 8.75134 26.1914C8.66313 26.1914 8.55417 26.2018 8.42446 26.2225C8.29993 26.2433 8.1339 26.2692 7.92635 26.3004ZM10.9228 26.1759C10.7723 26.1759 10.6971 26.2277 10.6971 26.3315C10.6971 26.3574 10.7048 26.4015 10.7204 26.4638C10.736 26.526 10.7593 26.6246 10.7904 26.7595C10.8371 26.9773 10.8812 27.2108 10.9228 27.4598C10.9643 27.7088 11.0058 27.9889 11.0473 28.3002C11.0888 28.6063 11.1277 28.9512 11.164 29.3351C11.2055 29.7138 11.247 30.1418 11.2885 30.6191C11.2937 30.6969 11.3638 30.7721 11.4987 30.8447C11.6336 30.9122 11.8126 30.9744 12.0357 31.0315C12.2588 31.0833 12.5131 31.1274 12.7984 31.1638C13.089 31.1949 13.3873 31.2104 13.6935 31.2104C14.0982 31.2104 14.4847 31.1638 14.8531 31.0704C15.2267 30.9718 15.5536 30.8421 15.8337 30.6813C16.1191 30.5205 16.3448 30.3337 16.5108 30.121C16.6821 29.9084 16.7677 29.6879 16.7677 29.4596C16.7677 29.0809 16.6172 28.7126 16.3163 28.3547C16.0205 27.9967 15.6106 27.6725 15.0866 27.382C14.5625 27.0863 13.9451 26.8347 13.2343 26.6272C12.5234 26.4145 11.7529 26.2641 10.9228 26.1759Z" fill="#4F4F4F"/>
<path d="M19.6785 30.3311C19.6629 30.3311 19.637 30.3337 19.6006 30.3389C19.5695 30.3441 19.5332 30.3493 19.4917 30.3545C19.4554 30.3597 19.419 30.3649 19.3827 30.3701C19.3464 30.3752 19.3179 30.3778 19.2971 30.3778C19.1518 30.3778 19.0247 30.3182 18.9158 30.1989C18.8068 30.0744 18.7523 29.9109 18.7523 29.7086C18.7523 29.5738 18.7964 29.4441 18.8846 29.3196C18.9728 29.1951 19.1103 29.0913 19.2971 29.0083C19.3542 28.9824 19.3983 28.9538 19.4294 28.9227C19.4657 28.8864 19.4839 28.8371 19.4839 28.7749C19.4839 28.6089 19.4787 28.4325 19.4683 28.2457C19.4631 28.0538 19.4528 27.8307 19.4372 27.5765C19.432 27.5246 19.4139 27.4754 19.3827 27.4287C19.3568 27.382 19.3256 27.3301 19.2893 27.273C19.2582 27.2108 19.2297 27.1434 19.2037 27.0707C19.1778 26.9981 19.1648 26.9073 19.1648 26.7984C19.1648 26.6998 19.1778 26.5883 19.2037 26.4638C19.2348 26.3341 19.2945 26.2148 19.3827 26.1058C19.4761 25.9917 19.6032 25.8983 19.7641 25.8257C19.9301 25.7479 20.1454 25.709 20.4101 25.709C20.519 25.709 20.6098 25.7194 20.6825 25.7401C20.7551 25.7609 20.8174 25.7868 20.8692 25.8179C20.9263 25.8439 20.9756 25.8672 21.0171 25.8879C21.0638 25.9087 21.1105 25.9191 21.1572 25.9191C21.2402 25.9191 21.4063 25.9035 21.6553 25.8724C21.9044 25.8413 22.2027 25.7972 22.5503 25.7401C22.9032 25.683 23.2897 25.6182 23.71 25.5456C24.1355 25.4729 24.5661 25.3951 25.0019 25.3121C25.4378 25.2239 25.8632 25.1357 26.2783 25.0476C26.6934 24.9594 27.0696 24.8738 27.4068 24.7908C27.5106 24.7648 27.6014 24.7519 27.6792 24.7519C27.7882 24.7519 27.8738 24.7778 27.9361 24.8297C28.0035 24.8764 28.0528 24.936 28.084 25.0086C28.1151 25.0813 28.1332 25.1643 28.1384 25.2577C28.1488 25.3458 28.154 25.4288 28.154 25.5067C28.154 25.6415 28.1073 25.7686 28.0139 25.8879C27.9257 26.0021 27.7778 26.0929 27.5703 26.1603C27.0566 26.3107 26.5378 26.443 26.0137 26.5572C25.4949 26.6661 24.9708 26.7672 24.4416 26.8606C23.9123 26.9488 23.3805 27.0292 22.8461 27.1019C22.3117 27.1745 21.7798 27.2471 21.2506 27.3197C21.178 27.3301 21.1235 27.3586 21.0872 27.4053C21.0508 27.4468 21.0327 27.5039 21.0327 27.5765V27.8956C21.0327 27.9837 21.0353 28.0745 21.0405 28.1679C21.0457 28.2613 21.056 28.3469 21.0716 28.4247C21.0924 28.5025 21.1183 28.5674 21.1494 28.6192C21.1806 28.6659 21.2221 28.6893 21.274 28.6893C21.3985 28.6893 21.5905 28.6633 21.8499 28.6114C22.1145 28.5596 22.4103 28.4973 22.7371 28.4247C23.0692 28.3469 23.4142 28.2639 23.7723 28.1757C24.1355 28.0823 24.4779 27.9993 24.7996 27.9267C25.1213 27.8489 25.4041 27.784 25.6479 27.7321C25.8918 27.6803 26.063 27.6543 26.1616 27.6543C26.3069 27.6543 26.4158 27.7088 26.4885 27.8177C26.5663 27.9215 26.6182 28.0538 26.6441 28.2146C26.6441 28.2405 26.6467 28.2639 26.6519 28.2846C26.6571 28.3054 26.6597 28.3287 26.6597 28.3547C26.6597 28.5051 26.613 28.6452 26.5196 28.7749C26.4314 28.8994 26.2706 28.9927 26.0371 29.055C25.9748 29.0757 25.8503 29.1095 25.6635 29.1561C25.4767 29.1976 25.2562 29.2495 25.0019 29.3118C24.7477 29.3688 24.4727 29.4311 24.177 29.4985C23.8812 29.566 23.5907 29.6334 23.3053 29.7008C23.0199 29.7631 22.7527 29.8254 22.5036 29.8876C22.2598 29.9447 22.06 29.9914 21.9044 30.0277C21.7643 30.064 21.6787 30.0925 21.6475 30.1133C21.6216 30.134 21.6086 30.16 21.6086 30.1911C21.619 30.3052 21.6761 30.4116 21.7798 30.5101C21.8888 30.6087 22.0237 30.6995 22.1846 30.7825C22.3506 30.8655 22.5348 30.9407 22.7371 31.0081C22.9447 31.0756 23.1574 31.1326 23.3753 31.1793C23.5984 31.2208 23.8164 31.2545 24.0291 31.2805C24.2418 31.3064 24.439 31.3194 24.6206 31.3194C24.6984 31.3194 24.81 31.3194 24.9552 31.3194C25.1005 31.3194 25.2588 31.3168 25.43 31.3116C25.6064 31.3012 25.7854 31.2883 25.967 31.2727C26.1538 31.2571 26.3198 31.2364 26.4651 31.2104C26.6156 31.1793 26.7375 31.143 26.8309 31.1015C26.9295 31.0548 26.9788 31.0003 26.9788 30.9381C26.9788 30.881 26.958 30.8214 26.9165 30.7591C26.8802 30.6969 26.862 30.6294 26.862 30.5568C26.862 30.4531 26.8906 30.3519 26.9477 30.2533C27.0047 30.1496 27.0774 30.0588 27.1656 29.981C27.259 29.898 27.3627 29.8331 27.4769 29.7864C27.5962 29.7346 27.7156 29.7086 27.8349 29.7086C27.9854 29.7086 28.1229 29.7398 28.2474 29.802C28.3719 29.8591 28.4783 29.9369 28.5665 30.0354C28.6599 30.1288 28.7299 30.2378 28.7766 30.3623C28.8285 30.4868 28.8545 30.6139 28.8545 30.7436C28.8545 31.0859 28.7273 31.3816 28.4731 31.6306C28.224 31.8796 27.8972 32.0846 27.4925 32.2454C27.0878 32.4114 26.6312 32.5333 26.1227 32.6111C25.6142 32.6941 25.1031 32.7356 24.5895 32.7356C23.9876 32.7356 23.4376 32.6941 22.9395 32.6111C22.4414 32.5333 21.9952 32.4062 21.6008 32.2298C21.2065 32.0534 20.8667 31.8252 20.5813 31.545C20.2959 31.2597 20.0624 30.9148 19.8808 30.5101C19.8186 30.3908 19.7511 30.3311 19.6785 30.3311Z" fill="#4F4F4F"/>
<path d="M28.8545 30.6969C28.7663 30.6969 28.6988 30.6528 28.6521 30.5646C28.6106 30.4764 28.5898 30.3519 28.5898 30.1911C28.5898 30.1651 28.5898 30.1366 28.5898 30.1055C28.5898 30.0692 28.595 30.0017 28.6054 29.9032C28.621 29.5297 28.8052 29.3118 29.158 29.2495L29.337 29.234C29.4563 29.2184 29.5497 29.1821 29.6172 29.125C29.6846 29.0628 29.7339 28.9772 29.7651 28.8682C29.8533 28.5725 29.9415 28.2743 30.0297 27.9734C30.1179 27.6725 30.2113 27.3742 30.3099 27.0785C30.3617 26.9125 30.4136 26.7361 30.4655 26.5494C30.5226 26.3574 30.5823 26.1681 30.6445 25.9813C30.712 25.7946 30.7872 25.6104 30.8702 25.4288C30.9584 25.2473 31.057 25.0813 31.166 24.9308C31.2127 24.8686 31.2775 24.8037 31.3605 24.7363C31.4436 24.6689 31.537 24.6092 31.6407 24.5573C31.7497 24.5003 31.8638 24.4562 31.9832 24.425C32.1077 24.3887 32.2296 24.3706 32.349 24.3706C32.5046 24.3706 32.6577 24.4199 32.8082 24.5184C33.0105 24.6585 33.2103 24.8271 33.4074 25.0242C33.6046 25.2213 33.8251 25.4729 34.069 25.779C34.3128 26.0851 34.5956 26.456 34.9173 26.8918C35.239 27.3223 35.6255 27.8437 36.077 28.4558C36.1444 28.5336 36.2145 28.5933 36.2871 28.6348C36.3649 28.6711 36.4557 28.6893 36.5595 28.6893H37.0031C37.1847 28.6893 37.3248 28.7334 37.4234 28.8215C37.5272 28.9045 37.579 29.0213 37.579 29.1717C37.579 29.2028 37.5765 29.2391 37.5713 29.2807C37.5713 29.3222 37.5635 29.3637 37.5479 29.4052L37.4 29.8409C37.3897 29.8824 37.3819 29.9187 37.3767 29.9499C37.3715 29.981 37.3689 30.0121 37.3689 30.0432C37.3689 30.1522 37.4052 30.2637 37.4779 30.3778L38.3106 31.5139C38.404 31.654 38.4507 31.7863 38.4507 31.9108C38.4507 32.0975 38.3444 32.2609 38.1316 32.401L37.8359 32.6111C37.7632 32.6578 37.6932 32.6941 37.6257 32.72C37.5635 32.746 37.4986 32.7589 37.4312 32.7589C37.3378 32.7589 37.2496 32.7304 37.1666 32.6734C37.0887 32.6215 37.0135 32.5489 36.9409 32.4555C36.6918 32.1027 36.4402 31.7551 36.1859 31.4128C35.9369 31.0704 35.6826 30.7306 35.4232 30.3934C35.3039 30.2274 35.1456 30.1444 34.9484 30.1444C34.3154 30.1703 33.6876 30.2066 33.065 30.2533C32.4475 30.2948 31.8275 30.3467 31.2049 30.409C30.9818 30.4297 30.8417 30.549 30.7846 30.7669L30.4344 32.0508C30.341 32.3932 30.1334 32.5644 29.8118 32.5644H29.6872L29.446 32.5333C29.2695 32.5177 29.1346 32.4633 29.0413 32.3699C28.953 32.2765 28.9089 32.1546 28.9089 32.0042C28.9089 31.973 28.9115 31.9393 28.9167 31.903C28.9219 31.8667 28.9297 31.8278 28.9401 31.7863C28.966 31.6825 28.992 31.5762 29.0179 31.4672C29.049 31.3583 29.0802 31.2519 29.1113 31.1482C29.1217 31.1067 29.1295 31.0704 29.1346 31.0393C29.1398 31.0029 29.1424 30.9692 29.1424 30.9381C29.1424 30.7773 29.0802 30.6969 28.9556 30.6969H28.8545ZM32.5591 26.5883C32.5072 26.5416 32.4605 26.5027 32.419 26.4716C32.3775 26.4404 32.3334 26.4249 32.2867 26.4249C32.157 26.4249 32.0662 26.5156 32.0143 26.6972C31.9105 27.0033 31.8094 27.3068 31.7108 27.6076C31.6174 27.9033 31.5214 28.2068 31.4228 28.5181C31.4124 28.544 31.4072 28.5674 31.4072 28.5881C31.4072 28.6089 31.4072 28.6322 31.4072 28.6581C31.4072 28.8501 31.5084 28.946 31.7108 28.946H31.7886C32.0999 28.9045 32.4112 28.8734 32.7225 28.8527C33.0339 28.8267 33.3452 28.806 33.6565 28.7904C33.7603 28.78 33.8407 28.7541 33.8978 28.7126C33.96 28.6659 33.9911 28.6063 33.9911 28.5336C33.9911 28.4662 33.96 28.3858 33.8978 28.2924C33.6798 28.0019 33.4593 27.7166 33.2362 27.4365C33.0183 27.1511 32.7926 26.8684 32.5591 26.5883Z" fill="#4F4F4F"/>
<path d="M54.5223 32.9301C54.4393 31.9756 54.3303 31.0315 54.1954 30.0977C54.0657 29.1639 53.9075 28.2224 53.7207 27.273C53.7051 27.2108 53.6844 27.1615 53.6584 27.1252C53.6377 27.0837 53.6065 27.0629 53.565 27.0629C53.5339 27.0629 53.4976 27.0655 53.4561 27.0707C53.4198 27.0759 53.3808 27.0785 53.3393 27.0785C53.1422 27.0785 52.9891 27.0292 52.8801 26.9307C52.7712 26.8321 52.7167 26.7076 52.7167 26.5572C52.7167 26.386 52.7868 26.22 52.9268 26.0591C53.0721 25.8983 53.2615 25.7479 53.495 25.6078C53.7285 25.4626 53.9957 25.3303 54.2966 25.211C54.5976 25.0916 54.9063 24.9905 55.2228 24.9075C55.5445 24.8193 55.861 24.7519 56.1723 24.7052C56.4836 24.6533 56.7664 24.6274 57.0206 24.6274C57.4824 24.6274 57.8793 24.6844 58.2114 24.7985C58.5487 24.9127 58.8237 25.0631 59.0364 25.2499C59.2543 25.4366 59.4126 25.6519 59.5111 25.8957C59.6149 26.1395 59.6668 26.3911 59.6668 26.6505C59.6668 26.9099 59.6097 27.1952 59.4956 27.5065C59.3866 27.8126 59.1998 28.1057 58.9352 28.3858C58.9041 28.4221 58.8833 28.4532 58.8729 28.4792C58.8626 28.4999 58.8574 28.5233 58.8574 28.5492C58.8574 28.5959 58.9093 28.627 59.013 28.6426C59.314 28.6685 59.6045 28.7411 59.8847 28.8605C60.1701 28.9798 60.4191 29.1354 60.6319 29.3273C60.8446 29.5141 61.0158 29.7346 61.1455 29.9888C61.2753 30.243 61.3401 30.5127 61.3401 30.798C61.3401 31.1975 61.2623 31.5476 61.1066 31.8485C60.9562 32.1442 60.746 32.3906 60.4762 32.5878C60.2064 32.7849 59.8847 32.9301 59.5111 33.0235C59.1427 33.1221 58.7432 33.1714 58.3126 33.1714C57.9753 33.1714 57.6355 33.1402 57.293 33.078C56.9558 33.0209 56.6263 32.9457 56.3046 32.8523C56.2838 32.842 56.2527 32.8368 56.2112 32.8368C56.123 32.8368 56.053 32.8886 56.0011 32.9924C55.9129 33.1688 55.7857 33.3062 55.6197 33.4048C55.4589 33.5034 55.2954 33.5527 55.1294 33.5527C54.9789 33.5527 54.8466 33.5034 54.7325 33.4048C54.6183 33.3114 54.5483 33.1532 54.5223 32.9301ZM56.0322 29.9654C55.9181 30.0069 55.861 30.0873 55.861 30.2066C55.861 30.2222 55.8662 30.2793 55.8765 30.3778C55.8921 30.4764 55.9103 30.5827 55.931 30.6969C55.9518 30.8317 55.9751 30.977 56.0011 31.1326C56.0166 31.2675 56.0867 31.3505 56.2112 31.3816C56.3721 31.4283 56.5485 31.4776 56.7404 31.5295C56.9324 31.5762 57.1322 31.6203 57.3397 31.6618C57.5473 31.7033 57.7574 31.737 57.9701 31.7629C58.1829 31.7889 58.3878 31.8018 58.585 31.8018C58.7354 31.8018 58.8807 31.7863 59.0208 31.7551C59.1609 31.7188 59.2854 31.6644 59.3944 31.5917C59.5034 31.5191 59.589 31.4283 59.6512 31.3194C59.7187 31.2053 59.7524 31.0678 59.7524 30.907C59.7524 30.6735 59.6875 30.4764 59.5578 30.3156C59.4281 30.1548 59.2647 30.0251 59.0675 29.9265C58.8703 29.8279 58.655 29.7579 58.4215 29.7164C58.1881 29.6697 57.9675 29.6464 57.76 29.6464C57.4798 29.6464 57.1944 29.6775 56.9039 29.7398C56.6185 29.802 56.3279 29.8772 56.0322 29.9654ZM55.4329 26.2537C55.3758 26.2692 55.3317 26.2874 55.3006 26.3081C55.2695 26.3289 55.2539 26.3678 55.2539 26.4249C55.2539 26.4819 55.2643 26.5857 55.285 26.7361C55.311 26.8814 55.3395 27.0474 55.3707 27.2341C55.407 27.4209 55.4433 27.6154 55.4796 27.8177C55.5211 28.0149 55.5574 28.1938 55.5886 28.3547C55.599 28.4532 55.6197 28.5207 55.6508 28.557C55.6872 28.5933 55.7313 28.6114 55.7831 28.6114C55.8143 28.6114 55.8532 28.6063 55.8999 28.5959C55.9518 28.5803 56.0192 28.5596 56.1022 28.5336C56.315 28.4662 56.5381 28.391 56.7716 28.308C57.0102 28.2198 57.2256 28.116 57.4175 27.9967C57.6147 27.8774 57.7756 27.7373 57.9001 27.5765C58.0298 27.4105 58.0947 27.2186 58.0947 27.0007C58.0947 26.8295 58.0583 26.6868 57.9857 26.5727C57.9131 26.4534 57.8119 26.3574 57.6822 26.2848C57.5525 26.207 57.402 26.1525 57.2308 26.1214C57.0595 26.0903 56.8727 26.0747 56.6704 26.0747C56.4629 26.0747 56.2527 26.0903 56.04 26.1214C55.8324 26.1525 55.6301 26.1966 55.4329 26.2537Z" fill="#4F4F4F"/>
<path d="M60.0949 25.5845C59.9133 25.4496 59.8225 25.2888 59.8225 25.102C59.8225 25.0294 59.8354 24.9594 59.8614 24.8919C59.8873 24.8193 59.934 24.7467 60.0015 24.674L60.2272 24.4173C60.3621 24.2513 60.5203 24.1683 60.7019 24.1683C60.7642 24.1683 60.8316 24.1812 60.9043 24.2072C60.9717 24.2279 61.0418 24.2668 61.1144 24.3239C61.8408 24.8686 62.5387 25.434 63.208 26.0202C63.8825 26.6012 64.5337 27.2367 65.1615 27.9267C65.2601 28.0201 65.3457 28.0667 65.4183 28.0667C65.5584 28.0667 65.644 27.9734 65.6752 27.7866L66.3601 25.0553C66.4379 24.7493 66.5961 24.5962 66.8348 24.5962C66.8867 24.5962 66.9412 24.604 66.9982 24.6196C67.0605 24.6351 67.1228 24.6637 67.185 24.7052L67.4574 24.853C67.7117 24.9931 67.8388 25.1824 67.8388 25.4211C67.8388 25.4989 67.8232 25.5845 67.7921 25.6778C67.6157 26.3263 67.4367 27.0111 67.2551 27.7321C67.0787 28.448 66.8971 29.1847 66.7103 29.9421C66.5235 30.6943 66.3315 31.4569 66.1344 32.2298C65.9372 33.0028 65.7348 33.7679 65.5273 34.5253C65.4443 34.8418 65.2653 35 64.9903 35C64.9124 35 64.8268 34.9844 64.7334 34.9533L64.4766 34.8755C64.3158 34.834 64.199 34.7666 64.1264 34.6732C64.0537 34.5798 64.0174 34.4657 64.0174 34.3308C64.0174 34.2997 64.0174 34.2634 64.0174 34.2219C64.0226 34.1804 64.033 34.1389 64.0485 34.0974C64.2146 33.48 64.378 32.8679 64.5389 32.2609C64.6997 31.654 64.8554 31.0444 65.0058 30.4323C65.0162 30.396 65.024 30.3649 65.0292 30.3389C65.0344 30.313 65.037 30.2845 65.037 30.2533C65.037 30.1911 65.0214 30.1314 64.9903 30.0744C64.9643 30.0173 64.928 29.9602 64.8813 29.9032C64.1497 29.0939 63.3844 28.3339 62.5854 27.6232C61.7915 26.9125 60.9613 26.2329 60.0949 25.5845Z" fill="#4F4F4F"/>
<path d="M70.4538 25.779C70.4123 25.779 70.3319 25.7894 70.2126 25.8101C70.0984 25.8257 69.9635 25.8464 69.8079 25.8724C69.6522 25.8983 69.4888 25.9294 69.3175 25.9658C69.1463 25.9969 68.9855 26.0254 68.835 26.0514C68.6845 26.0773 68.5548 26.1006 68.4459 26.1214C68.3317 26.137 68.2565 26.1447 68.2202 26.1447C67.8725 26.1447 67.6987 25.9632 67.6987 25.6C67.6987 25.5015 67.7091 25.4055 67.7298 25.3121C67.7454 25.2136 67.7765 25.1254 67.8232 25.0476C67.8699 24.9646 67.9322 24.8945 68.01 24.8375C68.0878 24.7804 68.1864 24.7415 68.3058 24.7207C68.9128 24.6274 69.5173 24.5288 70.1192 24.425C70.721 24.3213 71.3281 24.2123 71.9404 24.0982C72.0753 24.0723 72.1972 24.0489 72.3062 24.0282C72.4151 24.0022 72.537 23.9685 72.672 23.927C72.8172 23.8855 72.9755 23.8466 73.1467 23.8103C73.3179 23.7688 73.4892 23.7325 73.6604 23.7014C73.8368 23.6702 74.0054 23.6443 74.1663 23.6236C74.3323 23.6028 74.4828 23.5924 74.6177 23.5924C74.7837 23.5924 74.9082 23.6469 74.9912 23.7558C75.0795 23.8596 75.1236 24.0074 75.1236 24.1994C75.1236 24.2979 75.1158 24.3939 75.1002 24.4873C75.0846 24.5755 75.0561 24.6559 75.0146 24.7285C74.9731 24.8011 74.916 24.8608 74.8434 24.9075C74.7707 24.9542 74.6773 24.9827 74.5632 24.9931C74.2674 25.0346 73.9509 25.0865 73.6137 25.1487C73.2764 25.2058 72.9833 25.2706 72.7342 25.3432C72.6304 25.3744 72.5526 25.4262 72.5007 25.4989C72.4488 25.5663 72.4151 25.6519 72.3996 25.7557C72.384 25.8542 72.3736 25.9554 72.3684 26.0591C72.3684 26.1577 72.3684 26.2537 72.3684 26.3471C72.3684 26.5649 72.3762 26.7828 72.3918 27.0007C72.4125 27.2186 72.4307 27.4365 72.4463 27.6543C72.493 28.4013 72.563 29.1406 72.6564 29.872C72.755 30.6035 72.8613 31.3427 72.9755 32.0897C72.9859 32.1157 72.9911 32.1416 72.9911 32.1676C72.9911 32.1935 72.9911 32.2194 72.9911 32.2454C72.9911 32.5307 72.8302 32.733 72.5085 32.8523L72.1583 32.9613C72.0649 32.9924 71.9741 33.008 71.8859 33.008C71.751 33.008 71.642 32.9639 71.559 32.8757C71.476 32.7927 71.4215 32.6682 71.3956 32.5022C71.2503 31.6099 71.1232 30.7228 71.0142 29.8409C70.9052 28.9538 70.8352 28.0616 70.8041 27.1641C70.7937 27.0188 70.7859 26.8606 70.7807 26.6894C70.7755 26.5182 70.7729 26.3419 70.7729 26.1603C70.7729 25.9061 70.6666 25.779 70.4538 25.779Z" fill="#4F4F4F"/>
<path d="M75.824 30.3311C75.8084 30.3311 75.7825 30.3337 75.7462 30.3389C75.715 30.3441 75.6787 30.3493 75.6372 30.3545C75.6009 30.3597 75.5646 30.3649 75.5283 30.3701C75.4919 30.3752 75.4634 30.3778 75.4426 30.3778C75.2974 30.3778 75.1702 30.3182 75.0613 30.1989C74.9523 30.0744 74.8979 29.9109 74.8979 29.7086C74.8979 29.5738 74.942 29.4441 75.0302 29.3196C75.1184 29.1951 75.2559 29.0913 75.4426 29.0083C75.4997 28.9824 75.5438 28.9538 75.575 28.9227C75.6113 28.8864 75.6294 28.8371 75.6294 28.7749C75.6294 28.6089 75.6243 28.4325 75.6139 28.2457C75.6087 28.0538 75.5983 27.8307 75.5827 27.5765C75.5776 27.5246 75.5594 27.4754 75.5283 27.4287C75.5023 27.382 75.4712 27.3301 75.4349 27.273C75.4037 27.2108 75.3752 27.1434 75.3493 27.0707C75.3233 26.9981 75.3103 26.9073 75.3103 26.7984C75.3103 26.6998 75.3233 26.5883 75.3493 26.4638C75.3804 26.3341 75.4401 26.2148 75.5283 26.1058C75.6217 25.9917 75.7488 25.8983 75.9096 25.8257C76.0757 25.7479 76.291 25.709 76.5556 25.709C76.6646 25.709 76.7554 25.7194 76.828 25.7401C76.9006 25.7609 76.9629 25.7868 77.0148 25.8179C77.0719 25.8439 77.1212 25.8672 77.1627 25.8879C77.2094 25.9087 77.2561 25.9191 77.3028 25.9191C77.3858 25.9191 77.5518 25.9035 77.8009 25.8724C78.0499 25.8413 78.3483 25.7972 78.6959 25.7401C79.0487 25.683 79.4353 25.6182 79.8555 25.5456C80.281 25.4729 80.7116 25.3951 81.1475 25.3121C81.5833 25.2239 82.0088 25.1357 82.4239 25.0476C82.839 24.9594 83.2151 24.8738 83.5524 24.7908C83.6562 24.7648 83.747 24.7519 83.8248 24.7519C83.9337 24.7519 84.0194 24.7778 84.0816 24.8297C84.1491 24.8764 84.1984 24.936 84.2295 25.0086C84.2606 25.0813 84.2788 25.1643 84.284 25.2577C84.2944 25.3458 84.2995 25.4288 84.2995 25.5067C84.2995 25.6415 84.2528 25.7686 84.1595 25.8879C84.0712 26.0021 83.9234 26.0929 83.7158 26.1603C83.2022 26.3107 82.6833 26.443 82.1593 26.5572C81.6404 26.6661 81.1164 26.7672 80.5871 26.8606C80.0579 26.9488 79.5261 27.0292 78.9916 27.1019C78.4572 27.1745 77.9254 27.2471 77.3961 27.3197C77.3235 27.3301 77.269 27.3586 77.2327 27.4053C77.1964 27.4468 77.1782 27.5039 77.1782 27.5765V27.8956C77.1782 27.9837 77.1808 28.0745 77.186 28.1679C77.1912 28.2613 77.2016 28.3469 77.2171 28.4247C77.2379 28.5025 77.2638 28.5674 77.295 28.6192C77.3261 28.6659 77.3676 28.6893 77.4195 28.6893C77.544 28.6893 77.736 28.6633 77.9954 28.6114C78.26 28.5596 78.5558 28.4973 78.8827 28.4247C79.2147 28.3469 79.5598 28.2639 79.9178 28.1757C80.281 28.0823 80.6234 27.9993 80.9451 27.9267C81.2668 27.8489 81.5496 27.784 81.7935 27.7321C82.0373 27.6803 82.2085 27.6543 82.3071 27.6543C82.4524 27.6543 82.5614 27.7088 82.634 27.8177C82.7118 27.9215 82.7637 28.0538 82.7897 28.2146C82.7897 28.2405 82.7923 28.2639 82.7975 28.2846C82.8026 28.3054 82.8052 28.3287 82.8052 28.3547C82.8052 28.5051 82.7585 28.6452 82.6651 28.7749C82.5769 28.8994 82.4161 28.9927 82.1826 29.055C82.1203 29.0757 81.9958 29.1095 81.809 29.1561C81.6222 29.1976 81.4017 29.2495 81.1475 29.3118C80.8932 29.3688 80.6182 29.4311 80.3225 29.4985C80.0268 29.566 79.7362 29.6334 79.4508 29.7008C79.1655 29.7631 78.8982 29.8254 78.6492 29.8876C78.4053 29.9447 78.2056 29.9914 78.0499 30.0277C77.9098 30.064 77.8242 30.0925 77.7931 30.1133C77.7671 30.134 77.7542 30.16 77.7542 30.1911C77.7645 30.3052 77.8216 30.4116 77.9254 30.5101C78.0343 30.6087 78.1692 30.6995 78.3301 30.7825C78.4961 30.8655 78.6803 30.9407 78.8827 31.0081C79.0902 31.0756 79.3029 31.1326 79.5209 31.1793C79.744 31.2208 79.9619 31.2545 80.1746 31.2805C80.3874 31.3064 80.5845 31.3194 80.7661 31.3194C80.844 31.3194 80.9555 31.3194 81.1008 31.3194C81.2461 31.3194 81.4043 31.3168 81.5755 31.3116C81.752 31.3012 81.931 31.2883 82.1126 31.2727C82.2993 31.2571 82.4654 31.2364 82.6107 31.2104C82.7611 31.1793 82.8831 31.143 82.9765 31.1015C83.075 31.0548 83.1243 31.0003 83.1243 30.9381C83.1243 30.881 83.1036 30.8214 83.0621 30.7591C83.0257 30.6969 83.0076 30.6294 83.0076 30.5568C83.0076 30.4531 83.0361 30.3519 83.0932 30.2533C83.1503 30.1496 83.2229 30.0588 83.3111 29.981C83.4045 29.898 83.5083 29.8331 83.6224 29.7864C83.7418 29.7346 83.8611 29.7086 83.9804 29.7086C84.1309 29.7086 84.2684 29.7398 84.3929 29.802C84.5175 29.8591 84.6238 29.9369 84.712 30.0354C84.8054 30.1288 84.8755 30.2378 84.9222 30.3623C84.9741 30.4868 85 30.6139 85 30.7436C85 31.0859 84.8729 31.3816 84.6186 31.6306C84.3696 31.8796 84.0427 32.0846 83.638 32.2454C83.2333 32.4114 82.7767 32.5333 82.2682 32.6111C81.7597 32.6941 81.2487 32.7356 80.735 32.7356C80.1331 32.7356 79.5831 32.6941 79.085 32.6111C78.5869 32.5333 78.1407 32.4062 77.7464 32.2298C77.352 32.0534 77.0122 31.8252 76.7268 31.545C76.4415 31.2597 76.208 30.9148 76.0264 30.5101C75.9641 30.3908 75.8967 30.3311 75.824 30.3311Z" fill="#4F4F4F"/>
</svg>
