<svg width="21" height="20" viewBox="0 0 21 20" fill="none" xmlns="http://www.w3.org/2000/svg">
<path d="M20.3053 17.5533L15.2961 12.523C17.4219 9.32386 17.0009 5.07235 14.2858 2.35727C12.7494 0.841884 10.7289 0 8.56102 0C6.39317 0 4.37265 0.841884 2.85726 2.35727C-0.278755 5.51434 -0.278755 10.6288 2.85726 13.7648C5.57234 16.4799 9.82385 16.9008 13.023 14.7961L18.0533 19.8264C18.2848 20.0579 18.6847 20.0579 18.9162 19.8264L20.3053 18.4373C20.5579 18.1847 20.5579 17.7848 20.3053 17.5533ZM12.4337 11.9337C10.3079 14.0595 6.83516 14.0595 4.68836 11.9337C2.5626 9.80795 2.5626 6.33518 4.68836 4.18837C6.81412 2.06262 10.2869 2.06262 12.4337 4.18837C14.5594 6.33518 14.5594 9.80795 12.4337 11.9337Z" fill="white"/>
</svg>
