<svg xmlns="http://www.w3.org/2000/svg" data-name="Layer 1" viewBox="0 0 512 640" x="0px" y="0px"><title>25</title><path d="M1.17,512c-2.59-29-1.17-57.18,7.3-84.3,5.28-16.92,18.76-27.87,35.27-33.06,23.5-7.39,47.6-12.83,71.2-19.92,14-4.22,28.2-8.8,41.28-15.32,29.68-14.79,34.58-36.16,20.77-66.69-15.31-33.84-29.43-68.44-41-103.73-10.59-32.26-11-65.91-2.3-99.36C146.24,41.24,182,8.73,231.43,1.93,267.26-3,301.46.66,331.89,22.78c45.36,33,53.85,80.44,48.57,131.8-4.91,47.72-22.11,92-44.3,134.21-19,36.13-11.85,59.09,25.89,74,24.61,9.7,50.73,15.45,76.16,23,10.44,3.11,21.27,5.4,31.17,9.78,19.24,8.5,33.43,22.06,35.81,44.57,2.49,23.58,4.49,47.21,6.8,71.87H1.17Z"/><text x="0" y="527" fill="#000000" font-size="5px" font-weight="bold" font-family="'Helvetica Neue', Helvetica, Arial-Unicode, Arial, Sans-serif">Created by Baboon designs</text><text x="0" y="532" fill="#000000" font-size="5px" font-weight="bold" font-family="'Helvetica Neue', Helvetica, Arial-Unicode, Arial, Sans-serif">from the Noun Project</text></svg>